# xmcd
#
# Track frame offsets:
#	150
#	19906
#	29203
#	49876
#	65911
#	76465
#	91405
#	104765
#	121545
#	146280
#	158020
#	173301
#	185109
#	203006
#
# Disc length: 2894 seconds
#
# Revision: 2
# Processed by: cddbd v1.5.2PL0 Copyright (c) Steve Scherf et al.
# Submitted via: audiograbber 1.83.01
#
DISCID=bf0b4c0e
DTITLE=Various Artist - Big Water
DYEAR=2004
DGENRE=Blues
TTITLE0=Darren Watson - Big Water
TTITLE1=Cool Disposition - Nobody But You
TTITLE2=Rick Bryant - Class
TTITLE3=Pip Payne - Rocket To The Moon
TTITLE4=The Windy City Strugglers - Sip Of Your Wine
TTITLE5=Marg Layton - Down In The Dumps
TTITLE6=The Windy City Strugglers - Sittin' On Top Of The World
TTITLE7=Dave Murphy and Darren Watson - Kansas City
TTITLE8=Marg Layton - Trouble Then Satisfaction
TTITLE9=Kayte Edwards and Alan Witham - She's Gone
TTITLE10=Rick Bryant and Bill Lake - I Wanna Be With You
TTITLE11=Cool Disposition - Teenage Letter
TTITLE12=Darren Watson - Crocodile Smile
TTITLE13=Dave Murphy - Cigarette Machine
EXTD=
EXTT0=
EXTT1=
EXTT2=
EXTT3=
EXTT4=
EXTT5=
EXTT6=
EXTT7=
EXTT8=
EXTT9=
EXTT10=
EXTT11=
EXTT12=
EXTT13=
PLAYORDER=
